<?xml version="1.0" standalone="no"?>
<!DOCTYPE svg PUBLIC "-//W3C//DTD SVG 20010904//EN"
 "http://www.w3.org/TR/2001/REC-SVG-20010904/DTD/svg10.dtd">
<svg version="1.0" xmlns="http://www.w3.org/2000/svg"
 width="256.000000pt" height="256.000000pt" viewBox="0 0 256.000000 256.000000"
 preserveAspectRatio="xMidYMid meet">

<g transform="translate(0.000000,256.000000) scale(0.100000,-0.100000)"
fill="#FFFFFF" stroke="none">
<path d="M0 1285 l0 -1245 1280 0 1280 0 0 1245 0 1245 -1280 0 -1280 0 0
-1245z m1481 1089 c196 -34 359 -114 487 -242 88 -87 167 -208 211 -322 52
-134 55 -124 -40 -150 -45 -12 -87 -24 -93 -26 -6 -2 -23 30 -38 73 -93 263
-293 429 -570 473 -111 18 -332 8 -426 -19 -127 -37 -208 -85 -297 -175 -161
-162 -235 -389 -235 -721 1 -270 49 -465 156 -627 87 -130 223 -223 394 -269
119 -32 367 -33 482 -1 147 40 276 127 347 233 51 76 71 143 71 235 0 105 -28
174 -100 247 -31 31 -61 57 -67 57 -5 0 -15 -29 -22 -65 -30 -150 -130 -292
-244 -348 -73 -36 -126 -46 -227 -47 -257 0 -431 146 -433 365 -2 165 88 286
259 351 91 34 242 49 364 37 52 -6 97 -9 99 -7 2 2 -5 29 -15 61 -25 82 -88
145 -168 168 -118 34 -267 -1 -331 -77 l-26 -31 -79 54 c-44 30 -80 57 -80 60
0 4 24 31 53 62 116 120 298 171 478 133 193 -41 315 -172 355 -381 9 -50 18
-95 20 -102 1 -6 31 -26 66 -45 87 -46 196 -156 236 -238 79 -161 80 -347 3
-512 -84 -182 -277 -338 -491 -397 -104 -29 -268 -45 -384 -37 -508 35 -804
321 -897 866 -8 42 -13 155 -13 255 -1 208 17 330 70 495 108 331 345 543 679
610 117 24 320 25 446 4z"/>
<path d="M1230 1229 c-144 -26 -216 -105 -195 -216 22 -118 229 -178 371 -108
85 42 137 130 150 254 6 55 5 58 -17 64 -44 12 -253 16 -309 6z"/>
</g>
</svg>
